<svg xmlns="http://www.w3.org/2000/svg" width="63.376" height="62.283" viewBox="0 0 63.376 62.283">
  <g id="Group_4962" data-name="Group 4962" transform="translate(-225 -169.717)">
    <g id="Group_4518" data-name="Group 4518" transform="translate(225 169.717)">
      <path id="_6785" data-name="6785" d="M16.39,0h30.6a16.39,16.39,0,0,1,16.39,16.39v29.5a16.39,16.39,0,0,1-16.39,16.39H16.39A16.39,16.39,0,0,1,0,45.893V16.39A16.39,16.39,0,0,1,16.39,0Z" fill="#bac7a7"/>
    </g>
    <path id="cap" d="M47.783,8.971,32.527,3.155a.717.717,0,1,0-.511,1.339l13.5,5.147L36.171,13.2,24.417,7.882a.717.717,0,0,0-.591,1.306l10.458,4.735L24.122,17.8,2.727,9.641,24.122,1.484l5.272,2.01A.717.717,0,1,0,29.9,2.155L24.377.047a.717.717,0,0,0-.511,0L.461,8.971A.717.717,0,0,0,0,9.641v3.272a.717.717,0,0,0,.461.67l7.309,2.786v2.483a.716.716,0,1,0,1.433,0V16.915l14.664,5.591a.716.716,0,0,0,.511,0L35.43,18.292v11.34A24.277,24.277,0,0,1,9.2,27.308v-5.59a.716.716,0,1,0-1.433,0v5.937a.716.716,0,0,0,.268.559A25.705,25.705,0,0,0,35.43,31.237v2.9a2.722,2.722,0,1,0,1.433,0V30.481a25.538,25.538,0,0,0,3.342-2.266.716.716,0,0,0,.269-.559V16.368l7.308-2.786a.716.716,0,0,0,.461-.67V9.641a.717.717,0,0,0-.461-.67ZM37.436,36.764a1.29,1.29,0,1,1-1.29-1.29A1.291,1.291,0,0,1,37.436,36.764Zm-36-26.083L23.4,19.058V20.8L1.432,12.419ZM24.838,20.8V19.058L35.43,15.02v1.738Zm14.2,6.512a24,24,0,0,1-2.178,1.508V17.745l2.178-.83Zm-2.178-11.1V14.473l9.948-3.793v1.738Zm0,0" transform="translate(232.501 181.217)" fill="#fff" stroke="#fff" stroke-linecap="round" stroke-linejoin="round" stroke-width="0.3"/>
  </g>
</svg>
